<svg width="34" height="34" viewBox="0 0 34 34" fill="none" xmlns="http://www.w3.org/2000/svg">
<path d="M34 0H0V34H34V0Z" fill="#50ABF1"/>
<path d="M4.47492 25.0374C6.7228 26.4631 9.38928 27.2881 12.2476 27.2881C20.2778 27.2881 26.7874 20.7779 26.7874 12.7484C26.7874 12.5479 26.7831 12.3489 26.7754 12.1505C27.0659 11.922 28.8623 10.4822 29.3026 9.55655C29.3026 9.55655 27.8438 10.1628 26.416 10.3056C26.4132 10.3056 26.4097 10.3063 26.4069 10.3063C26.4069 10.3063 26.4097 10.3049 26.4146 10.3014C26.5462 10.2135 28.3854 8.96148 28.6344 7.46971C28.6344 7.46971 27.6026 8.02046 26.1579 8.50227C25.9187 8.58172 25.6684 8.65984 25.4102 8.73225C24.479 7.73838 23.1553 7.11804 21.686 7.11804C18.8677 7.11804 16.5839 9.40113 16.5839 12.2173C16.5839 12.6147 16.6296 13.0015 16.7161 13.3729C16.3223 13.3568 10.3247 13.0205 6.24462 8.07945C6.24462 8.07945 3.80611 11.4084 7.69777 14.8316C7.69777 14.8316 6.51476 14.7845 5.49414 14.1747C5.49414 14.1747 5.11927 18.2077 9.52647 19.2388C9.52647 19.2388 8.65926 19.5673 7.27577 19.3331C7.27577 19.3331 8.04944 22.5917 11.965 22.8963C11.965 22.8963 8.86878 25.6933 4.47351 25.0371L4.47492 25.0374Z" fill="white"/>
</svg>
