<svg width="34" height="34" viewBox="0 0 34 34" fill="none" xmlns="http://www.w3.org/2000/svg">
<path d="M34 0H0V34H34V0Z" fill="#44678D"/>
<path d="M8.80807 10.347C9.62291 12.3593 10.6556 14.2565 12.0157 15.9597C12.1961 16.1863 12.4235 16.3878 12.6631 16.5519C13.013 16.7922 13.3431 16.7077 13.4854 16.3075C13.6359 15.8875 13.774 15.0362 13.7822 14.5951C13.8046 13.4426 13.7788 12.6873 13.7169 11.5362C13.6767 10.799 13.4147 10.1516 12.3302 9.95625C11.9953 9.89567 11.9642 9.62 12.1793 9.345C12.6273 8.77248 13.2513 8.68124 13.9279 8.64513C15.0246 8.58589 16.1254 8.63424 17.2234 8.64513C17.6707 8.64923 18.1206 8.68527 18.5611 8.78129C19.1356 8.90655 19.4433 9.30957 19.538 9.87045C19.587 10.1598 19.6122 10.4572 19.6053 10.75C19.5768 12.008 19.5162 13.2653 19.5019 14.5226C19.4957 15.0161 19.5318 15.522 19.6373 16.0026C19.7851 16.6724 20.2411 16.8405 20.7075 16.3566C21.2997 15.7419 21.8219 15.0502 22.312 14.3477C23.2024 13.07 23.8674 11.6677 24.4399 10.2218C24.736 9.47579 24.9628 9.31374 25.7653 9.31173C27.2738 9.3083 28.7823 9.30696 30.2909 9.31173C30.5584 9.31307 30.8382 9.33829 31.0907 9.41864C31.5005 9.54935 31.6632 9.88358 31.5672 10.3077C31.3432 11.3016 30.8062 12.1464 30.2309 12.9585C29.3079 14.2614 28.3405 15.5331 27.3957 16.821C27.2752 16.985 27.1691 17.16 27.0703 17.3376C26.717 17.9762 26.7415 18.3342 27.2568 18.8658C28.0771 19.712 28.9553 20.5037 29.7497 21.373C30.327 22.0054 30.8613 22.6915 31.3188 23.4138C31.8974 24.3273 31.54 25.1878 30.459 25.3409C29.779 25.4369 26.4571 25.3417 26.2854 25.3409C25.3923 25.3369 24.6095 25.0271 23.9791 24.4206C23.2779 23.7453 22.6407 23.0047 21.9675 22.3001C21.7646 22.0877 21.5481 21.8842 21.3147 21.7065C20.764 21.2864 20.2234 21.3797 19.9661 22.0264C19.7463 22.5819 19.5563 24.0407 19.5474 24.1653C19.5012 24.8168 19.0866 25.232 18.3568 25.2721C16.25 25.3865 14.2084 25.1517 12.3065 24.1326C10.6945 23.2694 9.40723 22.0489 8.29218 20.6255C6.52089 18.3647 5.12182 15.8795 3.8445 13.3213C3.77922 13.1905 2.48549 10.4376 2.45072 10.3076C2.33516 9.87217 2.44296 9.45624 2.81084 9.31307C3.04018 9.22384 7.30567 9.31277 7.37662 9.31658C8.05724 9.35343 8.52136 9.64059 8.80807 10.347Z" fill="white"/>
</svg>
