<svg width="34" height="34" viewBox="0 0 34 34" fill="none" xmlns="http://www.w3.org/2000/svg">
<path d="M0 0V34H34V0H0ZM19.8205 18.4303C19.2391 22.2497 16.3915 24.4393 12.7049 24.4393C8.56196 24.4393 5.20314 21.0805 5.20314 16.9376C5.20314 12.7957 8.56196 9.43686 12.7049 9.43686C14.7089 9.43686 16.4649 10.152 17.7431 11.3935L15.5902 13.5464C14.8611 12.8118 13.8633 12.4203 12.7049 12.4203C10.2662 12.4203 8.28905 14.4998 8.28905 16.9375C8.28905 19.3773 10.2662 21.3965 12.7049 21.3965C14.7489 21.3965 16.2967 20.4085 16.7432 18.4303H12.7049V15.4178H19.8022C19.8874 15.9031 19.9305 16.4111 19.9305 16.9375C19.9304 17.4596 19.8927 17.9568 19.8205 18.4303ZM28.829 17.4963H26.2004V20.1237H24.3334V17.4963H21.7048V15.6281H24.3334V12.9995H26.2004V15.6281H28.829V17.4963Z" fill="#DD4B39"/>
</svg>
